<mxfile host="app.diagrams.net" agent="Mozilla/5.0 (Windows NT 10.0; Win64; x64) AppleWebKit/537.36 (KHTML, like Gecko) Chrome/128.0.0.0 Safari/537.36" version="24.7.13">
  <diagram name="第 1 页" id="J45-oVXA2Ai0uQ9UTUpe">
    <mxGraphModel dx="955" dy="619" grid="1" gridSize="10" guides="1" tooltips="1" connect="1" arrows="1" fold="1" page="1" pageScale="1" pageWidth="827" pageHeight="1169" math="0" shadow="0">
      <root>
        <mxCell id="0" />
        <mxCell id="1" parent="0" />
        <mxCell id="FJo_toOBzz0uz9wgeCMX-3" value="&lt;font style=&quot;font-size: 14px;&quot;&gt;文件分块&lt;/font&gt;" style="rounded=0;whiteSpace=wrap;html=1;" vertex="1" parent="1">
          <mxGeometry x="250" y="250" width="190" height="50" as="geometry" />
        </mxCell>
        <mxCell id="FJo_toOBzz0uz9wgeCMX-4" value="&lt;font style=&quot;font-size: 14px;&quot;&gt;调用createMultipartUpload初始化分片上传任务&lt;/font&gt;" style="rounded=0;whiteSpace=wrap;html=1;" vertex="1" parent="1">
          <mxGeometry x="250" y="340" width="190" height="50" as="geometry" />
        </mxCell>
        <mxCell id="FJo_toOBzz0uz9wgeCMX-5" value="&lt;span style=&quot;font-size: 14px;&quot;&gt;调用completeMultipartUpload合并文件&lt;/span&gt;" style="rounded=0;whiteSpace=wrap;html=1;" vertex="1" parent="1">
          <mxGeometry x="250" y="520" width="190" height="50" as="geometry" />
        </mxCell>
        <mxCell id="FJo_toOBzz0uz9wgeCMX-6" value="&lt;span style=&quot;font-size: 14px;&quot;&gt;传输分片文件到预签名URL&lt;/span&gt;" style="rounded=0;whiteSpace=wrap;html=1;" vertex="1" parent="1">
          <mxGeometry x="250" y="430" width="190" height="50" as="geometry" />
        </mxCell>
        <mxCell id="FJo_toOBzz0uz9wgeCMX-8" value="&lt;font style=&quot;font-size: 14px;&quot;&gt;完成上传&lt;/font&gt;" style="strokeWidth=2;html=1;shape=mxgraph.flowchart.terminator;whiteSpace=wrap;" vertex="1" parent="1">
          <mxGeometry x="250" y="610" width="190" height="60" as="geometry" />
        </mxCell>
        <mxCell id="FJo_toOBzz0uz9wgeCMX-9" value="&lt;font style=&quot;font-size: 14px;&quot;&gt;开始&lt;/font&gt;" style="strokeWidth=2;html=1;shape=mxgraph.flowchart.terminator;whiteSpace=wrap;" vertex="1" parent="1">
          <mxGeometry x="250" y="150" width="190" height="60" as="geometry" />
        </mxCell>
        <mxCell id="FJo_toOBzz0uz9wgeCMX-10" value="" style="endArrow=classic;html=1;rounded=0;exitX=0.5;exitY=1;exitDx=0;exitDy=0;exitPerimeter=0;entryX=0.5;entryY=0;entryDx=0;entryDy=0;strokeWidth=2;" edge="1" parent="1" source="FJo_toOBzz0uz9wgeCMX-9" target="FJo_toOBzz0uz9wgeCMX-3">
          <mxGeometry width="50" height="50" relative="1" as="geometry">
            <mxPoint x="580" y="360" as="sourcePoint" />
            <mxPoint x="630" y="310" as="targetPoint" />
          </mxGeometry>
        </mxCell>
        <mxCell id="FJo_toOBzz0uz9wgeCMX-15" value="" style="endArrow=classic;html=1;rounded=0;exitX=0.5;exitY=1;exitDx=0;exitDy=0;entryX=0.5;entryY=0;entryDx=0;entryDy=0;strokeWidth=2;" edge="1" parent="1" source="FJo_toOBzz0uz9wgeCMX-3" target="FJo_toOBzz0uz9wgeCMX-4">
          <mxGeometry width="50" height="50" relative="1" as="geometry">
            <mxPoint x="355" y="220" as="sourcePoint" />
            <mxPoint x="355" y="260" as="targetPoint" />
          </mxGeometry>
        </mxCell>
        <mxCell id="FJo_toOBzz0uz9wgeCMX-16" value="" style="endArrow=classic;html=1;rounded=0;exitX=0.5;exitY=1;exitDx=0;exitDy=0;entryX=0.5;entryY=0;entryDx=0;entryDy=0;strokeWidth=2;" edge="1" parent="1" source="FJo_toOBzz0uz9wgeCMX-4" target="FJo_toOBzz0uz9wgeCMX-6">
          <mxGeometry width="50" height="50" relative="1" as="geometry">
            <mxPoint x="365" y="230" as="sourcePoint" />
            <mxPoint x="365" y="270" as="targetPoint" />
          </mxGeometry>
        </mxCell>
        <mxCell id="FJo_toOBzz0uz9wgeCMX-17" value="" style="endArrow=classic;html=1;rounded=0;exitX=0.5;exitY=1;exitDx=0;exitDy=0;entryX=0.5;entryY=0;entryDx=0;entryDy=0;strokeWidth=2;" edge="1" parent="1" source="FJo_toOBzz0uz9wgeCMX-6" target="FJo_toOBzz0uz9wgeCMX-5">
          <mxGeometry width="50" height="50" relative="1" as="geometry">
            <mxPoint x="375" y="240" as="sourcePoint" />
            <mxPoint x="375" y="280" as="targetPoint" />
          </mxGeometry>
        </mxCell>
        <mxCell id="FJo_toOBzz0uz9wgeCMX-18" value="" style="endArrow=classic;html=1;rounded=0;exitX=0.5;exitY=1;exitDx=0;exitDy=0;entryX=0.5;entryY=0;entryDx=0;entryDy=0;strokeWidth=2;entryPerimeter=0;" edge="1" parent="1" source="FJo_toOBzz0uz9wgeCMX-5" target="FJo_toOBzz0uz9wgeCMX-8">
          <mxGeometry width="50" height="50" relative="1" as="geometry">
            <mxPoint x="385" y="250" as="sourcePoint" />
            <mxPoint x="385" y="290" as="targetPoint" />
          </mxGeometry>
        </mxCell>
      </root>
    </mxGraphModel>
  </diagram>
</mxfile>
